HIERARCHY
ROOT root
{
	OFFSET 0.000000 0.000000 0.000000
	CHANNELS 6 Xposition Yposition Zposition Zrotation Yrotation Xrotation
	JOINT lhip
	{
		OFFSET 0.058581 -0.082280 -0.017664
		CHANNELS 3 Zrotation Yrotation Xrotation
		JOINT lknee
		{
			OFFSET 0.043451 -0.386469 0.008037
			CHANNELS 3 Zrotation Yrotation Xrotation
			JOINT lankle
			{
				OFFSET -0.014790 -0.426874 -0.037428
				CHANNELS 3 Zrotation Yrotation Xrotation
				JOINT ltoe
				{
					OFFSET 0.041054 -0.060286 0.122042
					CHANNELS 3 Zrotation Yrotation Xrotation
					End Site
					{
						OFFSET 0.000000 0.000000 0.000000
					}
				}
			}
		}
	}
	JOINT rhip
	{
		OFFSET -0.060310 -0.090513 -0.013543
		CHANNELS 3 Zrotation Yrotation Xrotation
		JOINT rknee
		{
			OFFSET -0.043257 -0.383688 -0.004843
			CHANNELS 3 Zrotation Yrotation Xrotation
			JOINT rankle
			{
				OFFSET 0.019056 -0.420046 -0.034562
				CHANNELS 3 Zrotation Yrotation Xrotation
				JOINT rtoe
				{
					OFFSET -0.034840 -0.062106 0.130323
					CHANNELS 3 Zrotation Yrotation Xrotation
					End Site
					{
						OFFSET 0.000000 0.000000 0.000000
					}
				}
			}
		}
	}
	JOINT lowerback
	{
		OFFSET 0.004439 0.124404 -0.038385
		CHANNELS 3 Zrotation Yrotation Xrotation
		JOINT upperback
		{
			OFFSET 0.004488 0.137956 0.026820
			CHANNELS 3 Zrotation Yrotation Xrotation
			JOINT chest
			{
				OFFSET -0.002265 0.056032 0.002855
				CHANNELS 3 Zrotation Yrotation Xrotation
				JOINT lowerneck
				{
					OFFSET -0.013390 0.211636 -0.033468
					CHANNELS 3 Zrotation Yrotation Xrotation
					JOINT upperneck
					{
						OFFSET 0.010113 0.088937 0.050410
						CHANNELS 3 Zrotation Yrotation Xrotation
						End Site
						{
							OFFSET 0.000000 0.000000 0.000000
						}
					}
				}
				JOINT lclavicle
				{
					OFFSET 0.071702 0.114000 -0.018898
					CHANNELS 3 Zrotation Yrotation Xrotation
					JOINT lshoulder
					{
						OFFSET 0.122921 0.045205 -0.019046
						CHANNELS 3 Zrotation Yrotation Xrotation
						JOINT lelbow
						{
							OFFSET 0.255332 -0.015649 -0.022946
							CHANNELS 3 Zrotation Yrotation Xrotation
							JOINT lwrist
							{
								OFFSET 0.265709 0.012698 -0.007375
								CHANNELS 3 Zrotation Yrotation Xrotation
								End Site
								{
									OFFSET 0.000000 0.000000 0.000000
								}
							}
						}
					}
				}
				JOINT rclavicle
				{
					OFFSET -0.082954 0.112472 -0.023707
					CHANNELS 3 Zrotation Yrotation Xrotation
					JOINT rshoulder
					{
						OFFSET -0.113228 0.046853 -0.008472
						CHANNELS 3 Zrotation Yrotation Xrotation
						JOINT relbow
						{
							OFFSET -0.260127 -0.014369 -0.031269
							CHANNELS 3 Zrotation Yrotation Xrotation
							JOINT rwrist
							{
								OFFSET -0.269108 0.006794 -0.006027
								CHANNELS 3 Zrotation Yrotation Xrotation
								End Site
								{
									OFFSET 0.000000 0.000000 0.000000
								}
							}
						}
					}
				}
			}
		}
	}
}
MOTION
Frames: 16
Frame Time: 0.033333
-1.546131 0.463698 1.052177 87.752995 0.389683 86.124474 1.619264 4.173938 10.583321 -4.190532 -3.503715 -0.959618 3.601943 10.551927 -11.394783 0.000000 -0.000000 0.000000 -0.727430 -4.115283 4.934979 3.031457 0.161553 9.212888 1.090265 -5.987173 -12.235568 0.000000 -0.000000 0.000000 0.251627 1.221076 1.364552 0.167290 -1.795134 3.639922 -1.825231 -0.590936 2.002911 4.320911 -4.257165 -1.818675 1.462508 -10.819381 9.898472 -26.178718 -0.048751 5.196569 -55.854615 -5.221081 10.739464 4.133913 -25.417847 13.727460 -10.123183 -8.014167 -3.306399 25.946819 5.492589 4.754719 58.960232 6.171422 13.557361 -8.908773 22.386092 1.137424 10.606465 1.955698 -6.738673 
-1.546155 0.463665 1.052109 87.710581 0.378213 86.167189 1.582513 4.109051 10.540503 -4.191741 -3.443115 -0.973029 3.625186 10.616306 -11.408294 0.000000 -0.000000 0.000000 -0.730996 -3.970234 4.912492 3.072841 0.268767 9.165814 1.275870 -6.191348 -12.235104 0.000000 -0.000000 0.000000 0.226537 1.226324 1.350978 0.181701 -1.807272 3.625772 -1.834773 -0.573129 2.116273 4.323843 -4.265552 -2.091805 1.356306 -10.804439 10.130728 -26.105607 -0.035671 5.125277 -55.988866 -5.259963 10.857553 4.205043 -25.366554 13.816770 -9.988750 -8.044481 -3.457881 25.845665 5.478502 4.663026 59.101130 6.156948 13.681576 -8.995367 22.427236 1.155060 10.571720 1.953769 -6.889608 
-1.546126 0.463631 1.052101 87.670439 0.383370 86.185177 1.574969 4.092590 10.509051 -4.185690 -3.426022 -0.943951 3.640045 10.648983 -11.423274 0.000000 -0.000000 0.000000 -0.716046 -3.937216 4.875364 3.065766 0.296205 9.191585 1.276770 -6.213467 -12.230240 0.000000 -0.000000 0.000000 0.222987 1.211058 1.346306 0.183151 -1.806059 3.666442 -1.832170 -0.563608 2.154446 4.311664 -4.236853 -2.142233 1.336288 -10.747438 10.123104 -26.114649 -0.039656 5.093737 -56.014206 -5.271188 10.863521 4.219166 -25.341692 13.810919 -9.983660 -8.041388 -3.459160 25.836336 5.468422 4.628250 59.116415 6.161732 13.691751 -9.005465 22.440739 1.152507 10.567911 1.952281 -6.893771 
-1.546119 0.463610 1.052097 87.634091 0.389940 86.219853 1.562316 4.046726 10.459155 -4.181559 -3.411006 -0.914262 3.648364 10.721075 -11.440503 0.000000 -0.000000 0.000000 -0.687942 -3.863141 4.800943 3.056802 0.325848 9.248843 1.274000 -6.271913 -12.277109 0.000000 -0.000000 0.000000 0.211230 1.190522 1.330020 0.191895 -1.811701 3.676031 -1.834452 -0.586015 2.166561 4.289924 -4.180401 -2.059424 1.294028 -10.688274 10.142511 -26.120000 -0.045634 5.126733 -56.050855 -5.264102 10.890354 4.255005 -25.321116 13.781831 -9.992803 -8.022672 -3.488537 25.849378 5.496830 4.709236 59.120566 6.193649 13.727492 -9.045225 22.404972 1.099339 10.572365 1.947129 -6.926382 
-1.546105 0.463594 1.052110 87.608322 0.389197 86.242695 1.547566 4.021056 10.434126 -4.176767 -3.408993 -0.905571 3.648691 10.778359 -11.472032 0.000000 -0.000000 0.000000 -0.673084 -3.812128 4.740489 3.046152 0.346911 9.310783 1.296328 -6.311155 -12.344045 0.000000 -0.000000 0.000000 0.198316 1.175808 1.327786 0.194792 -1.803615 3.670799 -1.839432 -0.593146 2.172185 4.290975 -4.155593 -2.037476 1.266289 -10.685529 10.188195 -26.117271 -0.034622 5.137703 -56.066076 -5.259390 10.911182 4.258045 -25.322617 13.778234 -9.999996 -8.022433 -3.501063 25.859123 5.493441 4.742762 59.131298 6.198937 13.749405 -9.060831 22.373384 1.077914 10.573299 1.945115 -6.939494 
-1.546050 0.463576 1.052123 87.574873 0.384187 86.276004 1.525024 3.994053 10.402929 -4.168448 -3.424822 -0.893578 3.633318 10.854827 -11.544364 0.000000 -0.000000 0.000000 -0.657250 -3.750156 4.650357 3.023103 0.356133 9.418793 1.361235 -6.366601 -12.473443 0.000000 -0.000000 0.000000 0.177218 1.157502 1.322745 0.199090 -1.792440 3.662001 -1.846525 -0.581163 2.174834 4.288716 -4.136274 -1.998327 1.240192 -10.684906 10.252572 -26.114322 -0.019320 5.147413 -56.080452 -5.247821 10.932006 4.257136 -25.338684 13.771916 -10.004144 -8.021277 -3.505326 25.861056 5.464678 4.760605 59.155359 6.168611 13.761266 -9.074638 22.355464 1.070197 10.574863 1.944963 -6.953481 
-1.545974 0.463561 1.052122 87.530325 0.379157 86.287939 1.511537 3.991532 10.402961 -4.166603 -3.443175 -0.886171 3.586516 10.923309 -11.671864 0.000000 -0.000000 0.000000 -0.654709 -3.718333 4.583300 3.005670 0.360812 9.532822 1.449862 -6.402606 -12.654731 0.000000 -0.000000 0.000000 0.166228 1.151497 1.321054 0.198568 -1.794313 3.680942 -1.859466 -0.576678 2.205892 4.289969 -4.080343 -1.982957 1.218444 -10.667850 10.277789 -26.126190 -0.000983 5.127807 -56.074390 -5.248803 10.937568 4.267042 -25.354945 13.743456 -9.979615 -8.003741 -3.485550 25.878179 5.446432 4.751627 59.153912 6.156872 13.772461 -9.073226 22.346569 1.065715 10.567335 1.942158 -6.940073 
-1.545844 0.463532 1.052129 87.496010 0.381600 86.271600 1.510006 3.998346 10.423764 -4.167482 -3.478267 -0.849113 3.500919 10.989609 -11.892801 0.000000 -0.000000 0.000000 -0.655038 -3.706217 4.562460 2.999486 0.375851 9.636617 1.563039 -6.393144 -12.910359 0.000000 -0.000000 0.000000 0.170170 1.146507 1.359009 0.196834 -1.800378 3.679469 -1.874643 -0.575318 2.237845 4.291529 -4.020423 -1.996909 1.180768 -10.685316 10.313401 -26.141564 0.006675 5.093243 -56.058897 -5.244025 10.937727 4.270408 -25.350542 13.704883 -9.933991 -7.996844 -3.440514 25.908846 5.431089 4.727605 59.133907 6.131998 13.770078 -9.065633 22.335866 1.069063 10.550623 1.945629 -6.906512 
-1.545692 0.463493 1.052175 87.483397 0.401913 86.251113 1.520711 3.983146 10.432302 -4.169340 -3.526494 -0.784312 3.403530 11.047182 -12.145508 0.000000 -0.000000 0.000000 -0.642326 -3.691571 4.562218 3.003934 0.376817 9.701837 1.645413 -6.356628 -13.147616 0.000000 -0.000000 0.000000 0.198804 1.132379 1.389539 0.199271 -1.809095 3.654867 -1.888061 -0.576309 2.244976 4.278887 -3.979270 -1.938825 1.119804 -10.701083 10.387633 -26.138429 -0.023842 5.113373 -56.082875 -5.227562 10.944239 4.300632 -25.335261 13.656363 -9.911929 -7.991341 -3.424061 25.913482 5.440459 4.756181 59.130434 6.106282 13.750053 -9.074047 22.309089 1.064969 10.540161 1.953302 -6.906436 
-1.545338 0.463481 1.052242 87.408282 0.409122 86.241088 1.514507 3.990747 10.472693 -4.175118 -3.563668 -0.769544 3.314623 11.113021 -12.349573 0.000000 -0.000000 0.000000 -0.658474 -3.681637 4.585165 3.015666 0.424016 9.715707 1.748219 -6.293423 -13.295986 0.000000 -0.000000 0.000000 0.228711 1.124726 1.374017 0.188099 -1.793994 3.682669 -1.902823 -0.563750 2.284126 4.267706 -3.884122 -1.968607 1.073194 -10.664341 10.474239 -26.129882 -0.000430 5.053606 -56.096075 -5.217633 10.953664 4.288039 -25.326563 13.667175 -9.885604 -7.975721 -3.389935 25.912895 5.399977 4.719222 59.116581 6.102080 13.742767 -9.040610 22.300910 1.099817 10.529337 1.958383 -6.874730 
-1.544937 0.463460 1.052294 87.318507 0.404672 86.244641 1.491012 4.012784 10.533221 -4.165167 -3.553133 -0.825997 3.301648 11.150909 -12.361724 0.000000 -0.000000 0.000000 -0.671657 -3.662921 4.607425 3.016216 0.478261 9.697986 1.788332 -6.262028 -13.319537 0.000000 -0.000000 0.000000 0.235096 1.126915 1.338822 0.181747 -1.773713 3.708108 -1.906830 -0.554906 2.302666 4.275568 -3.839113 -2.022169 1.037649 -10.635249 10.545629 -26.124109 0.060839 4.991210 -56.100494 -5.207957 10.956688 4.261206 -25.317063 13.700022 -9.887276 -7.970333 -3.376442 25.916070 5.358163 4.692004 59.107453 6.111685 13.756676 -9.024632 22.288539 1.103106 10.526495 1.957955 -6.841546 
-1.544597 0.463509 1.052290 87.268346 0.407898 86.258248 1.477128 4.027471 10.564233 -4.149286 -3.517060 -0.881366 3.332507 11.145925 -12.228793 0.000000 -0.000000 0.000000 -0.668213 -3.653633 4.613109 3.008349 0.494566 9.678370 1.764482 -6.257294 -13.255221 0.000000 -0.000000 0.000000 0.232913 1.127750 1.318074 0.187722 -1.765133 3.704743 -1.901459 -0.551275 2.280206 4.264785 -3.851336 -1.976186 1.027432 -10.609640 10.575286 -26.126017 0.085662 5.007636 -56.097953 -5.195967 10.954550 4.256573 -25.320232 13.709691 -9.900409 -7.964042 -3.376067 25.913803 5.339249 4.712615 59.102565 6.100392 13.759792 -9.033611 22.285555 1.090185 10.531191 1.956889 -6.837368 
-1.544282 0.463586 1.052263 87.228660 0.418704 86.280842 1.462826 4.052726 10.578851 -4.118308 -3.431359 -0.954322 3.437126 11.096402 -11.917821 0.000000 -0.000000 0.000000 -0.655043 -3.660813 4.610503 2.993181 0.477370 9.624241 1.668378 -6.262695 -13.010709 0.000000 -0.000000 0.000000 0.239527 1.116402 1.306335 0.191941 -1.755361 3.690049 -1.893864 -0.553645 2.238521 4.242023 -3.890086 -1.914864 1.030694 -10.553666 10.598190 -26.132900 0.108961 5.048659 -56.087037 -5.195512 10.941791 4.250409 -25.317123 13.724741 -9.933572 -7.973315 -3.371185 25.902808 5.322158 4.744161 59.105434 6.099115 13.768825 -9.044776 22.285059 1.064881 10.541248 1.956543 -6.834454 
-1.543996 0.463763 1.052150 87.235631 0.445816 86.321345 1.472606 4.090419 10.573156 -4.081317 -3.281093 -1.049584 3.633344 10.981333 -11.540422 0.000000 -0.000000 0.000000 -0.630205 -3.722831 4.637888 2.979322 0.413570 9.476486 1.426706 -6.286889 -12.545661 0.000000 -0.000000 0.000000 0.274448 1.095121 1.292467 0.194679 -1.784861 3.679535 -1.890657 -0.579102 2.209672 4.198879 -3.958824 -1.873498 1.053947 -10.482580 10.564675 -26.139869 0.120702 5.111267 -56.068661 -5.212418 10.908384 4.243283 -25.318213 13.775144 -9.990532 -8.009725 -3.392834 25.889115 5.325229 4.785572 59.094087 6.126034 13.779740 -9.052291 22.324407 1.040175 10.559742 1.957357 -6.863861 
-1.543657 0.463936 1.051999 87.233945 0.461251 86.359489 1.499813 4.126321 10.621589 -4.089687 -3.220134 -1.191174 3.655100 10.903735 -11.427347 0.000000 -0.000000 0.000000 -0.640594 -3.786065 4.693581 2.992822 0.399361 9.331140 1.345868 -6.265764 -12.374430 0.000000 -0.000000 0.000000 0.289773 1.110252 1.208743 0.204470 -1.828133 3.750486 -1.886231 -0.594367 2.218656 4.179243 -3.977600 -1.880443 1.082771 -10.472128 10.483595 -26.151375 0.080062 5.140586 -56.053202 -5.246672 10.892078 4.251875 -25.303594 13.772432 -10.021212 -8.027959 -3.416154 25.892312 5.349349 4.780220 59.068566 6.167856 13.760608 -9.051803 22.342452 1.034890 10.570133 1.958902 -6.888740 
-1.543309 0.464077 1.051833 87.202934 0.477497 86.419927 1.532610 4.171352 10.664465 -4.109294 -3.177826 -1.353028 3.653039 10.845216 -11.361713 0.000000 -0.000000 0.000000 -0.660147 -3.815911 4.724327 3.026748 0.398009 9.194346 1.309654 -6.220002 -12.292656 0.000000 -0.000000 0.000000 0.312107 1.108484 1.090584 0.210085 -1.844817 3.817059 -1.890839 -0.584509 2.238818 4.179049 -3.975596 -1.921865 1.101620 -10.478899 10.435397 -26.142029 0.056503 5.144097 -56.057199 -5.282806 10.883931 4.266851 -25.310551 13.760236 -10.036702 -8.047342 -3.431610 25.890030 5.364187 4.760321 59.069369 6.222654 13.745801 -9.049151 22.328871 1.051237 10.574928 1.963390 -6.891777 
